<?xml version="1.0" standalone="no"?>
<!DOCTYPE svg PUBLIC "-//W3C//DTD SVG 20010904//EN"
 "http://www.w3.org/TR/2001/REC-SVG-20010904/DTD/svg10.dtd">
<svg version="1.0" xmlns="http://www.w3.org/2000/svg"
 width="500.000000pt" height="500.000000pt" viewBox="0 0 500.000000 500.000000"
 preserveAspectRatio="xMidYMid meet">

<g transform="translate(0.000000,500.000000) scale(0.100000,-0.100000)"
fill="#000000" stroke="none">
<path d="M1555 3557 c-3 -7 -4 -60 -3 -118 l3 -104 40 0 c40 0 40 0 43 43 2
33 0 42 -12 42 -12 0 -16 -10 -16 -35 0 -24 -5 -35 -15 -35 -12 0 -15 18 -15
100 0 82 3 100 15 100 10 0 15 -11 15 -35 0 -25 4 -35 16 -35 12 0 14 9 12 43
-3 41 -4 42 -41 45 -25 2 -39 -1 -42 -11z"/>
<path d="M1660 3451 c0 -114 1 -121 20 -121 18 0 20 7 20 55 0 42 3 55 15 55
12 0 15 -13 15 -55 0 -42 3 -55 15 -55 13 0 15 20 15 120 0 100 -2 120 -15
120 -11 0 -15 -12 -15 -50 0 -37 -4 -50 -14 -50 -11 0 -16 14 -18 47 -2 36 -7
49 -20 51 -16 3 -18 -8 -18 -117z"/>
<path d="M1790 3450 l0 -120 45 0 c49 0 62 17 18 22 -25 3 -28 7 -31 46 -3 39
-1 42 22 42 32 0 34 17 4 22 -20 3 -23 9 -23 43 0 34 3 40 23 43 38 6 24 22
-18 22 l-40 0 0 -120z"/>
<path d="M1890 3450 l0 -120 45 0 c49 0 62 17 18 22 -25 3 -28 7 -31 46 -3 39
-1 42 22 42 32 0 34 17 4 22 -20 3 -23 9 -23 43 0 34 3 40 23 43 38 6 24 22
-18 22 l-40 0 0 -120z"/>
<path d="M1990 3450 c0 -113 1 -120 20 -120 16 0 20 7 21 38 l1 37 15 -37 c9
-21 22 -38 29 -38 17 0 17 10 4 46 -8 19 -8 30 0 38 14 14 13 129 -2 144 -7 7
-29 12 -50 12 l-38 0 0 -120z m65 40 c0 -34 -5 -55 -12 -57 -10 -4 -13 12 -13
57 0 45 3 61 13 58 7 -3 12 -24 12 -58z"/>
<path d="M2117 3564 c-4 -4 -7 -34 -7 -66 0 -57 1 -59 31 -65 27 -5 30 -9 27
-41 -4 -42 -28 -57 -28 -18 0 17 -5 26 -16 26 -11 0 -14 -8 -12 -32 3 -31 5
-33 43 -33 l40 0 0 60 c0 58 -1 60 -28 63 -26 3 -28 6 -25 45 3 45 21 54 26
12 2 -14 10 -25 18 -25 11 0 14 10 12 38 -3 35 -5 37 -38 40 -20 2 -39 0 -43
-4z"/>
<path d="M1093 3267 c2 -7 86 -127 186 -267 l181 -255 0 -238 0 -238 98 3 97
3 3 238 2 238 112 157 c61 86 115 163 121 170 7 9 -16 12 -110 12 l-120 0 -49
-70 c-27 -38 -52 -70 -55 -70 -4 0 -60 74 -125 165 l-118 165 -114 0 c-88 0
-113 -3 -109 -13z"/>
<path d="M2510 2953 c0 -342 -6 -402 -42 -440 -55 -58 -192 -70 -261 -23 -70
48 -72 55 -75 348 l-3 262 -95 0 -95 0 3 -292 c3 -284 4 -294 27 -340 12 -26
41 -66 63 -89 153 -158 483 -140 608 33 57 78 60 106 60 505 l0 363 -95 0 -95
0 0 -327z"/>
<path d="M2737 3274 c-4 -4 -7 -45 -7 -91 l0 -83 170 0 c203 0 260 -10 295
-52 36 -42 34 -97 -4 -140 l-29 -33 -214 -5 -213 -5 0 -295 0 -295 95 0 95 0
3 200 2 200 54 -3 53 -4 93 -199 93 -199 98 0 c54 0 100 3 102 8 2 4 -40 102
-93 219 l-98 211 38 17 c51 23 94 69 122 130 17 39 22 68 22 130 -1 131 -45
204 -152 257 l-66 33 -226 3 c-124 2 -228 0 -233 -4z"/>
<path d="M3580 2865 l0 -414 -60 -7 -61 -7 3 -81 3 -81 213 -3 212 -2 0 85 0
85 -54 0 c-47 0 -54 3 -60 23 -3 12 -6 201 -6 420 l0 397 -95 0 -95 0 0 -415z"/>
<path d="M655 2084 c-283 -60 -426 -257 -412 -569 8 -169 50 -270 152 -363
117 -108 232 -142 498 -149 l187 -5 0 101 0 101 -132 0 c-241 1 -336 26 -413
112 -55 61 -78 131 -78 238 0 104 23 176 74 234 65 74 170 116 289 116 l50 0
0 -120 0 -120 105 0 105 0 0 220 0 220 -177 -1 c-115 0 -203 -6 -248 -15z"/>
<path d="M1738 1708 l-3 -393 -24 -34 c-65 -91 -257 -98 -334 -13 -41 45 -46
85 -47 365 l0 267 -105 0 -105 0 0 -289 c0 -261 2 -295 20 -352 54 -171 218
-269 429 -256 140 8 245 59 318 155 60 79 63 102 63 544 l0 398 -105 0 -104 0
-3 -392z"/>
<path d="M1990 1680 l0 -421 108 3 107 3 5 222 5 223 248 -355 249 -355 104 0
104 0 0 550 0 550 -105 0 -105 0 -2 -357 -3 -358 -250 357 -250 357 -107 1
-108 0 0 -420z"/>
<path d="M2970 1860 l0 -240 105 0 105 0 0 240 0 240 -105 0 -105 0 0 -240z"/>
<path d="M3600 1988 c0 -62 -3 -218 -7 -347 l-6 -234 -311 4 -311 4 -3 -85
c-2 -47 0 -140 3 -207 l7 -123 104 0 104 0 0 100 0 100 205 0 205 0 0 -77 c0
-129 -5 -124 114 -121 l101 3 3 548 2 547 -105 0 -105 0 0 -112z"/>
<path d="M4259 2073 c-6 -16 -100 -259 -210 -541 -109 -282 -199 -517 -199
-522 0 -6 44 -10 108 -10 l108 0 94 268 c52 147 101 284 109 305 l16 37 109
-305 109 -305 103 0 c56 0 105 3 107 8 3 4 -87 243 -200 532 -113 289 -207
533 -210 543 -8 26 -32 20 -44 -10z"/>
</g>
</svg>
